<?xml version="1.0" encoding="UTF-8" standalone="no"?>
<!-- Created with Inkscape (http://www.inkscape.org/) -->

<svg
   xmlns:dc="http://purl.org/dc/elements/1.1/"
   xmlns:cc="http://creativecommons.org/ns#"
   xmlns:rdf="http://www.w3.org/1999/02/22-rdf-syntax-ns#"
   xmlns:svg="http://www.w3.org/2000/svg"
   xmlns="http://www.w3.org/2000/svg"
   xmlns:sodipodi="http://sodipodi.sourceforge.net/DTD/sodipodi-0.dtd"
   xmlns:inkscape="http://www.inkscape.org/namespaces/inkscape"
   width="41.433807"
   height="50.77327"
   id="svg6078"
   version="1.1"
   inkscape:version="0.48.4 r9939"
   sodipodi:docname="New document 20">
  <defs
     id="defs6080" />
  <sodipodi:namedview
     id="base"
     pagecolor="#ffffff"
     bordercolor="#666666"
     borderopacity="1.0"
     inkscape:pageopacity="0.0"
     inkscape:pageshadow="2"
     inkscape:zoom="0.35"
     inkscape:cx="20.720044"
     inkscape:cy="25.383797"
     inkscape:document-units="px"
     inkscape:current-layer="layer1"
     showgrid="false"
     fit-margin-top="0"
     fit-margin-left="0"
     fit-margin-right="0"
     fit-margin-bottom="0"
     inkscape:window-width="472"
     inkscape:window-height="415"
     inkscape:window-x="0"
     inkscape:window-y="24"
     inkscape:window-maximized="0" />
  <metadata
     id="metadata6083">
    <rdf:RDF>
      <cc:Work
         rdf:about="">
        <dc:format>image/svg+xml</dc:format>
        <dc:type
           rdf:resource="http://purl.org/dc/dcmitype/StillImage" />
        <dc:title></dc:title>
      </cc:Work>
    </rdf:RDF>
  </metadata>
  <g
     inkscape:label="Layer 1"
     inkscape:groupmode="layer"
     id="layer1"
     transform="translate(-354.27996,-506.97271)">
    <g
       transform="matrix(0.07478351,0,0,0.07478351,353.76019,492.98732)"
       id="layer1-5"
       inkscape:label="Layer 1"
       style="stroke-width:26.74386406;stroke-miterlimit:4;stroke-dasharray:none">
      <g
         id="g5288"
         transform="translate(684.86932,50.320151)"
         style="stroke-width:26.74386406;stroke-miterlimit:4;stroke-dasharray:none">
        <g
           transform="translate(-678.76112,119.73499)"
           id="g5241"
           style="stroke-width:26.74386406;stroke-miterlimit:4;stroke-dasharray:none" />
        <path
           sodipodi:nodetypes="cssc"
           inkscape:connector-curvature="0"
           id="path5245"
           d="m -515.343,245.63189 c 0,0 -137.26454,283.27497 -146.99195,401.08469 -9.72741,117.80972 16.21235,113.48643 27.02058,125.37548 10.80823,11.88906 359.38622,26.02285 359.38622,26.02285"
           style="fill:none;stroke:#000000;stroke-width:26.74386406;stroke-linecap:butt;stroke-linejoin:miter;stroke-miterlimit:4;stroke-opacity:1;stroke-dasharray:none" />
        <path
           sodipodi:nodetypes="cssc"
           inkscape:connector-curvature="0"
           id="path5247"
           d="m -250.49566,802.17422 c 0,0 80.22769,5.40107 88.25046,-78.85552 6.44912,-67.72985 -58.16508,-65.89296 -78.222,-65.89296 -20.05693,0 -77.21916,-1.62032 -77.21916,-1.62032"
           style="fill:none;stroke:#000000;stroke-width:26.74386406;stroke-linecap:butt;stroke-linejoin:miter;stroke-miterlimit:4;stroke-opacity:1;stroke-dasharray:none" />
        <path
           sodipodi:nodetypes="ccssc"
           inkscape:connector-curvature="0"
           id="path5249"
           d="m -239.11332,267.90855 -312.66063,-22.31837 c 0,0 -50.30075,-5.5706 -48.94161,-46.79796 1.35915,-41.22736 60.43299,-48.1769 64.96348,-48.62995 4.53047,-0.45306 318.20487,13.86595 318.20487,13.86595"
           style="fill:none;stroke:#000000;stroke-width:26.74386406;stroke-linecap:butt;stroke-linejoin:miter;stroke-miterlimit:4;stroke-opacity:1;stroke-dasharray:none" />
        <path
           sodipodi:nodetypes="csssscc"
           inkscape:connector-curvature="0"
           id="path5251"
           d="m -221.38421,657.91252 c 0,0 -24.82145,0.86108 -39.59812,8.44938 -16.0361,8.23506 -31.51671,23.49337 -26.34997,51.31998 9.92768,53.4678 35.45595,45.44763 49.63833,42.77424 14.1824,-2.6734 25.52831,-20.62329 24.11006,-26.35198 -1.41824,-5.7287 -1.41824,-5.7287 -1.41824,-5.7287 l -70.91193,-4.20104"
           style="fill:none;stroke:#000000;stroke-width:26.74386406;stroke-linecap:butt;stroke-linejoin:miter;stroke-miterlimit:4;stroke-opacity:1;stroke-dasharray:none" />
        <g
           transform="translate(75.723508,-494.01746)"
           id="g5253"
           style="stroke-width:26.74386406;stroke-miterlimit:4;stroke-dasharray:none">
          <g
             transform="translate(-678.76112,119.73499)"
             id="g5255"
             style="stroke-width:26.74386406;stroke-miterlimit:4;stroke-dasharray:none" />
          <path
             sodipodi:nodetypes="cscasc"
             inkscape:connector-curvature="0"
             d="m -291.62289,657.70482 c 20.05692,0 84.67113,-1.83689 78.22199,65.89297 -2.71158,28.47745 -13.67139,46.71297 -27.59031,59.20708 -27.11776,27.70018 -79.96911,133.42514 -106.84827,205.93976 -15.22884,41.08437 -88.25563,237.08547 -52.09055,275.65867 36.16509,38.5732 87.22167,30.935 87.22167,30.935"
             style="fill:none;stroke:#000000;stroke-width:26.74386406;stroke-linecap:butt;stroke-linejoin:miter;stroke-miterlimit:4;stroke-opacity:1;stroke-dasharray:none"
             id="path5259" />
          <path
             sodipodi:nodetypes="cssaacc"
             inkscape:connector-curvature="0"
             id="path5261"
             d="m -272.5399,658.19161 c 0,0 -24.82145,0.86107 -39.59812,8.44937 -16.0361,8.23507 -31.51672,23.49337 -26.34998,51.31998 9.92769,53.4678 27.83483,44.06805 49.63833,42.77425 11.88485,-0.70523 20.25244,-15.08852 24.11007,-26.35199 1.89171,-5.52338 -1.41824,-17.45753 -1.41824,-17.45753 l -70.91193,-4.20105"
             style="fill:none;stroke:#000000;stroke-width:26.74386406;stroke-linecap:butt;stroke-linejoin:miter;stroke-miterlimit:4;stroke-opacity:1;stroke-dasharray:none" />
        </g>
      </g>
    </g>
  </g>
</svg>
